<svg width="250" height="250" viewBox="0 0 250 250" fill="none" xmlns="http://www.w3.org/2000/svg">
<rect width="250" height="250" fill="black"/>
<path d="M173.898 53.4764L156.343 36.0181C152.44 32.1367 146.134 32.1392 142.234 36.0236L77.0643 100.935C73.1594 104.824 73.1376 111.14 77.0154 115.056L94.6356 132.851C98.5381 136.792 104.903 136.805 108.82 132.878L173.925 67.6303C177.831 63.7161 177.818 57.3754 173.898 53.4764Z" fill="white"/>
<path d="M173.898 126.476L156.343 109.018C152.44 105.137 146.134 105.139 142.234 109.024L77.0643 173.935C73.1594 177.824 73.1376 184.14 77.0154 188.056L94.6356 205.851C98.5381 209.792 104.903 209.805 108.82 205.878L173.925 140.63C177.831 136.716 177.818 130.375 173.898 126.476Z" fill="white"/>
</svg>
